<?xml version="1.0" encoding="UTF-8"?>
<!DOCTYPE svg PUBLIC "-//W3C//DTD SVG 1.1//EN" "http://www.w3.org/Graphics/SVG/1.1/DTD/svg11.dtd">
<svg version="1.2" width="162.33mm" height="105.18mm" viewBox="0 0 16233 10518" preserveAspectRatio="xMidYMid" fill-rule="evenodd" stroke-width="28.222" stroke-linejoin="round" xmlns="http://www.w3.org/2000/svg" xmlns:ooo="http://xml.openoffice.org/svg/export" xmlns:xlink="http://www.w3.org/1999/xlink" xmlns:presentation="http://sun.com/xmlns/staroffice/presentation" xmlns:smil="http://www.w3.org/2001/SMIL20/" xmlns:anim="urn:oasis:names:tc:opendocument:xmlns:animation:1.0" xml:space="preserve">
 <defs class="ClipPathGroup">
  <clipPath id="presentation_clip_path" clipPathUnits="userSpaceOnUse">
   <rect x="0" y="0" width="16233" height="10518"/>
  </clipPath>
  <clipPath id="presentation_clip_path_shrink" clipPathUnits="userSpaceOnUse">
   <rect x="16" y="10" width="16201" height="10497"/>
  </clipPath>
 </defs>
 <defs class="TextShapeIndex">
  <g ooo:slide="id1" ooo:id-list="id3 id4 id5 id6 id7"/>
 </defs>
 <defs class="EmbeddedBulletChars">
  <g id="bullet-char-template-57356" transform="scale(0.00048828125,-0.00048828125)">
   <path d="M 580,1141 L 1163,571 580,0 -4,571 580,1141 Z"/>
  </g>
  <g id="bullet-char-template-57354" transform="scale(0.00048828125,-0.00048828125)">
   <path d="M 8,1128 L 1137,1128 1137,0 8,0 8,1128 Z"/>
  </g>
  <g id="bullet-char-template-10146" transform="scale(0.00048828125,-0.00048828125)">
   <path d="M 174,0 L 602,739 174,1481 1456,739 174,0 Z M 1358,739 L 309,1346 659,739 1358,739 Z"/>
  </g>
  <g id="bullet-char-template-10132" transform="scale(0.00048828125,-0.00048828125)">
   <path d="M 2015,739 L 1276,0 717,0 1260,543 174,543 174,936 1260,936 717,1481 1274,1481 2015,739 Z"/>
  </g>
  <g id="bullet-char-template-10007" transform="scale(0.00048828125,-0.00048828125)">
   <path d="M 0,-2 C -7,14 -16,27 -25,37 L 356,567 C 262,823 215,952 215,954 215,979 228,992 255,992 264,992 276,990 289,987 310,991 331,999 354,1012 L 381,999 492,748 772,1049 836,1024 860,1049 C 881,1039 901,1025 922,1006 886,937 835,863 770,784 769,783 710,716 594,584 L 774,223 C 774,196 753,168 711,139 L 727,119 C 717,90 699,76 672,76 641,76 570,178 457,381 L 164,-76 C 142,-110 111,-127 72,-127 30,-127 9,-110 8,-76 1,-67 -2,-52 -2,-32 -2,-23 -1,-13 0,-2 Z"/>
  </g>
  <g id="bullet-char-template-10004" transform="scale(0.00048828125,-0.00048828125)">
   <path d="M 285,-33 C 182,-33 111,30 74,156 52,228 41,333 41,471 41,549 55,616 82,672 116,743 169,778 240,778 293,778 328,747 346,684 L 369,508 C 377,444 397,411 428,410 L 1163,1116 C 1174,1127 1196,1133 1229,1133 1271,1133 1292,1118 1292,1087 L 1292,965 C 1292,929 1282,901 1262,881 L 442,47 C 390,-6 338,-33 285,-33 Z"/>
  </g>
  <g id="bullet-char-template-9679" transform="scale(0.00048828125,-0.00048828125)">
   <path d="M 813,0 C 632,0 489,54 383,161 276,268 223,411 223,592 223,773 276,916 383,1023 489,1130 632,1184 813,1184 992,1184 1136,1130 1245,1023 1353,916 1407,772 1407,592 1407,412 1353,268 1245,161 1136,54 992,0 813,0 Z"/>
  </g>
  <g id="bullet-char-template-8226" transform="scale(0.00048828125,-0.00048828125)">
   <path d="M 346,457 C 273,457 209,483 155,535 101,586 74,649 74,723 74,796 101,859 155,911 209,963 273,989 346,989 419,989 480,963 531,910 582,859 608,796 608,723 608,648 583,586 532,535 482,483 420,457 346,457 Z"/>
  </g>
  <g id="bullet-char-template-8211" transform="scale(0.00048828125,-0.00048828125)">
   <path d="M -4,459 L 1135,459 1135,606 -4,606 -4,459 Z"/>
  </g>
  <g id="bullet-char-template-61548" transform="scale(0.00048828125,-0.00048828125)">
   <path d="M 173,740 C 173,903 231,1043 346,1159 462,1274 601,1332 765,1332 928,1332 1067,1274 1183,1159 1299,1043 1357,903 1357,740 1357,577 1299,437 1183,322 1067,206 928,148 765,148 601,148 462,206 346,322 231,437 173,577 173,740 Z"/>
  </g>
 </defs>
 <g>
  <g id="id2" class="Master_Slide">
   <g id="bg-id2" class="Background"/>
   <g id="bo-id2" class="BackgroundObjects"/>
  </g>
 </g>
 <g class="SlideGroup">
  <g>
   <g id="container-id1">
    <g id="id1" class="Slide" clip-path="url(#presentation_clip_path)">
     <g class="Page">
      <g class="com.sun.star.drawing.PolyPolygonShape">
       <g id="id3">
        <rect class="BoundingBox" stroke="none" fill="none" x="6159" y="6083" width="3232" height="3039"/>
        <path fill="rgb(0,0,0)" stroke="none" d="M 7761,6452 L 7831,6426 7914,6446 7983,6392 8017,6333 8055,6125 8086,6085 8150,6083 8185,6107 8260,6085 8311,6187 8400,6227 8441,6229 8467,6208 8432,6144 8446,6109 8518,6109 8518,6109 8492,6173 8499,6241 8557,6276 8550,6372 8594,6506 8585,6577 8648,6626 8646,6642 8543,6687 8458,6775 8449,6809 8514,7264 8577,7334 8736,7390 9009,7566 9208,7767 9362,7888 9362,7888 9390,7948 9306,8066 9315,8153 9250,8313 9254,8389 9254,8389 9249,8522 9281,8589 9220,8638 9158,8633 9136,8587 9021,8688 8945,8647 8913,8570 8867,8542 8850,8619 8811,8646 8778,8635 8721,8649 8705,8681 8574,8693 8545,8767 8485,8833 8468,8812 8391,8794 8299,8806 8247,8785 8182,8838 8171,8893 8097,8904 8049,8898 8001,8854 7924,8865 7866,8805 7759,8825 7635,8799 7592,8823 7548,8815 7388,8942 7336,8821 7235,8819 7169,8881 7104,8906 7089,8934 7100,8998 7038,9082 6862,9121 6722,9117 6576,9048 6521,9066 6348,9033 6338,9024 6369,8988 6414,8977 6405,8886 6418,8841 6381,8760 6450,8661 6413,8601 6420,8563 6404,8556 6397,8495 6424,8462 6427,8421 6397,8353 6427,8325 6434,8264 6415,8203 6381,8175 6387,8068 6370,8018 6397,7971 6464,7966 6456,7938 6486,7880 6591,7748 6586,7683 6529,7554 6412,7530 6414,7482 6351,7380 6340,7276 6287,7176 6252,7173 6232,7039 6180,6969 6188,6830 6184,6760 6159,6735 6166,6697 6166,6697 6269,6647 6325,6393 6374,6356 6400,6385 6440,6515 6539,6510 6599,6588 6849,6525 6977,6408 7009,6401 7334,6510 7423,6517 7504,6575 7681,6527 7761,6452 Z"/>
       </g>
      </g>
      <g class="com.sun.star.drawing.PolyPolygonShape">
       <g id="id4">
        <rect class="BoundingBox" stroke="none" fill="none" x="4850" y="4379" width="3020" height="2319"/>
        <path fill="rgb(0,0,0)" stroke="none" d="M 5143,4379 L 5189,4401 5249,4467 5346,4488 5406,4520 5442,4660 5501,4771 5649,4849 5661,5016 5772,5192 5805,5313 5832,5330 5956,5340 6011,5424 6087,5424 6098,5495 6123,5505 6177,5450 6212,5458 6255,5515 6287,5515 6321,5419 6409,5388 6436,5333 6467,5315 6519,5327 6546,5377 6646,5428 6729,5414 6789,5315 6810,5311 6838,5426 6929,5464 6989,5513 7071,5524 7150,5465 7150,5465 7220,5495 7312,5489 7373,5508 7434,5695 7607,5835 7607,5871 7477,5920 7412,6076 7419,6098 7461,6118 7636,6061 7681,6210 7869,6290 7863,6354 7813,6372 7761,6452 7761,6452 7681,6527 7504,6575 7423,6517 7334,6510 7009,6401 6977,6408 6849,6525 6599,6588 6539,6510 6440,6515 6400,6385 6374,6356 6325,6393 6269,6647 6166,6697 6166,6697 6156,6672 6123,6660 6052,6671 5987,6590 5927,6616 5818,6588 5766,6515 5664,6523 5539,6419 5469,6406 5440,6366 5384,6342 5333,6282 5290,6266 5243,6220 5216,6075 5133,6047 5078,5903 5038,5853 5014,5853 4956,5772 4951,5736 4895,5673 4850,5657 4862,5627 4948,5614 4964,5594 5015,5594 5036,5621 5086,5587 5111,5546 5103,5490 5157,5425 5152,5377 5259,5359 5266,5306 5297,5274 5320,5134 5358,5075 5327,4976 5263,4911 5201,4879 5130,4791 5048,4771 5052,4697 5120,4518 5092,4491 5145,4415 5143,4379 Z"/>
       </g>
      </g>
      <g class="com.sun.star.drawing.PolyPolygonShape">
       <g id="id5">
        <rect class="BoundingBox" stroke="none" fill="none" x="5057" y="3622" width="2166" height="1904"/>
        <path fill="rgb(0,0,0)" stroke="none" d="M 5527,3626 L 5572,3680 5616,3664 5661,3686 5676,3719 5719,3659 5742,3675 5762,3649 5832,3655 5866,3622 5866,3622 5896,3651 5913,3740 6019,3733 6057,3770 6103,3870 6230,3890 6306,3960 6419,3980 6471,4063 6612,4124 6648,4181 6648,4181 6678,4240 6763,4287 6815,4377 6877,4398 6921,4441 6952,4612 6927,4670 7046,4690 7147,4841 7215,4826 7222,4870 7222,4870 7171,4939 7120,5113 7126,5329 7150,5466 7150,5466 7071,5525 6989,5514 6929,5465 6838,5427 6810,5312 6789,5316 6729,5415 6646,5429 6546,5378 6519,5328 6467,5316 6436,5334 6409,5389 6321,5420 6287,5516 6255,5516 6212,5459 6177,5451 6123,5506 6098,5496 6087,5425 6011,5425 5956,5341 5832,5331 5805,5314 5772,5193 5661,5017 5649,4850 5501,4772 5442,4661 5406,4521 5346,4489 5249,4468 5189,4402 5143,4380 5143,4380 5106,4345 5134,4330 5180,4230 5204,4226 5211,4163 5110,4034 5099,3983 5061,3934 5057,3871 5146,3843 5227,3777 5251,3750 5261,3693 5297,3671 5401,3728 5400,3683 5426,3631 5527,3626 Z"/>
       </g>
      </g>
      <g class="com.sun.star.drawing.PolyPolygonShape">
       <g id="id6">
        <rect class="BoundingBox" stroke="none" fill="none" x="5866" y="2490" width="4526" height="3964"/>
        <path fill="rgb(0,0,0)" stroke="none" d="M 6346,2528 L 6417,2490 6466,2493 6532,2580 6637,2638 6717,2756 6778,2792 7073,2794 7184,2759 7293,2757 7351,2676 7410,2631 7579,2641 7579,2641 7744,2656 7807,2679 7812,2713 7712,2854 7735,2989 7891,3227 7961,3273 8220,3045 8318,3108 8353,3108 8499,3016 8600,2995 8668,3045 8921,3052 9048,3116 9077,3088 9074,3010 9074,3010 9235,3019 9251,3112 9380,3177 9403,3343 9584,3440 9519,3487 9501,3523 9584,3582 9594,3707 9663,3759 9638,3800 9637,3847 9550,3904 9556,3940 9740,3974 9883,3962 10145,4038 10145,4038 10041,4276 10051,4358 10095,4407 10257,4472 10391,4606 10329,4767 10176,4794 10176,4794 10109,4731 10033,4776 10000,4716 9949,4520 9863,4498 9787,4456 9666,4508 9553,4518 9524,4648 9472,4660 9398,4646 9238,4819 9181,4814 9069,4741 8916,4775 8901,4817 8937,5016 9036,5173 9075,5202 9130,5200 9264,5143 9298,5166 9302,5227 9205,5432 9155,5476 9049,5488 9016,5512 8963,5675 9009,5767 9002,5799 8917,5844 8859,5772 8723,5952 8607,6020 8518,6110 8518,6110 8446,6110 8432,6145 8467,6209 8441,6230 8400,6228 8311,6188 8260,6086 8185,6108 8150,6084 8086,6086 8055,6126 8017,6334 7983,6393 7914,6447 7831,6427 7761,6453 7761,6453 7813,6373 7863,6355 7869,6291 7681,6211 7636,6062 7461,6119 7419,6099 7412,6077 7477,5921 7607,5872 7607,5836 7434,5696 7373,5509 7312,5490 7220,5496 7150,5466 7150,5466 7126,5329 7120,5113 7171,4939 7222,4870 7222,4870 7250,4899 7361,4926 7389,4969 7456,5011 7571,5176 7602,5186 7647,5160 7659,5057 7707,4924 7779,4932 7801,4946 7874,5115 7887,5175 7876,5266 7894,5341 7943,5322 8064,5368 8221,5311 8162,5115 8097,5011 8102,4959 8065,4939 7981,4803 7994,4642 7971,4516 7955,4495 7869,4474 7850,4449 7867,4385 7925,4362 7955,4257 8050,4224 8083,4191 8158,3909 8125,3778 8083,3772 8034,3819 7975,3837 7767,3702 7466,3779 7418,3771 7378,3729 7337,3624 7283,3569 7260,3571 7125,3905 7120,3972 7076,4039 7074,4070 7114,4101 7096,4162 7021,4138 6959,4174 6744,4166 6648,4181 6648,4181 6612,4124 6471,4063 6419,3980 6306,3960 6230,3890 6103,3870 6057,3770 6019,3733 5913,3740 5896,3651 5866,3622 5866,3622 5933,3492 5908,3435 5942,3396 5944,3314 6110,3238 6151,3172 6235,3127 6298,2963 6377,2929 6458,2858 6496,2697 6467,2663 6519,2574 6440,2528 6346,2528 Z"/>
       </g>
      </g>
      <g class="com.sun.star.drawing.PolyPolygonShape">
       <g id="id7">
        <rect class="BoundingBox" stroke="none" fill="none" x="6648" y="3568" width="1574" height="1801"/>
        <path fill="rgb(0,0,0)" stroke="none" d="M 6648,4181 L 6744,4166 6959,4174 7021,4138 7096,4162 7114,4101 7074,4070 7076,4039 7120,3972 7125,3905 7260,3571 7283,3569 7337,3624 7378,3729 7418,3771 7466,3779 7767,3702 7975,3837 8034,3819 8083,3772 8125,3778 8158,3909 8083,4191 8050,4224 7955,4257 7925,4362 7867,4385 7850,4449 7869,4474 7955,4495 7971,4516 7994,4642 7981,4803 8065,4939 8102,4959 8097,5011 8162,5115 8221,5311 8064,5368 7943,5322 7894,5341 7876,5266 7887,5175 7874,5115 7801,4946 7779,4932 7707,4924 7659,5057 7647,5160 7602,5186 7571,5176 7456,5011 7389,4969 7361,4926 7250,4899 7222,4870 7222,4870 7215,4826 7147,4841 7046,4690 6927,4670 6952,4612 6921,4441 6877,4398 6815,4377 6763,4287 6678,4240 6648,4181 Z"/>
       </g>
      </g>
     </g>
    </g>
   </g>
  </g>
 </g>
</svg>